<?xml version="1.0" encoding="utf-8"?>
<!-- Generator: Adobe Illustrator 22.0.1, SVG Export Plug-In . SVG Version: 6.00 Build 0)  -->
<svg version="1.1" id="Layer_1" xmlns="http://www.w3.org/2000/svg" xmlns:xlink="http://www.w3.org/1999/xlink" x="0px" y="0px"
	 viewBox="0 0 32 50" enable-background="new 0 0 32 50" xml:space="preserve">
<g>
	<path fill="#E24746" d="M31.77,16.701c0-9.26-8.005-16.65-17.473-15.629C6.82,1.879,1.087,7.712,0.393,15.2
		c-0.465,5.016,1.429,9.599,4.7,12.774c1.278,1.241,2.465,2.568,3.552,3.968c3.066,3.948,5.124,8.584,6.212,13.463l0.886,3.974
		h0.607l0.919-4.122c1.07-4.8,3.064-9.376,6.068-13.27c1.049-1.359,2.2-2.639,3.458-3.818C29.856,25.303,31.77,21.227,31.77,16.701z
		"/>
	<circle fill="#FFFFFF" cx="16.047" cy="17.937" r="4.874"/>
</g>
</svg>
